<svg width="85" height="41" viewBox="0 0 85 41" fill="none" xmlns="http://www.w3.org/2000/svg">
<g clip-path="url(#clip0_304_2)">
<path d="M76.5572 39.829V39.9238C76.5338 39.9774 76.5056 40.029 76.4729 40.0777L76.3525 40.2198L76.2321 40.3264C76.1065 40.4314 75.9641 40.5154 75.8107 40.575H75.7505C75.601 40.6337 75.442 40.6658 75.281 40.6698H70.4655C70.337 40.6739 70.2092 40.6506 70.0907 40.6016C69.9723 40.5525 69.866 40.4788 69.7793 40.3856L64.5183 35.0335L61.0631 40.1961L60.9909 40.2908L60.8705 40.4329H60.8103H60.7501H60.6658C60.5693 40.5139 60.4594 40.578 60.3408 40.6224L60.2204 40.6816C60.0694 40.7357 59.9113 40.7676 59.7509 40.7763H54.9353C54.8069 40.7804 54.679 40.7572 54.5606 40.7081C54.4421 40.6591 54.3359 40.5854 54.2491 40.4921L52.4553 38.4674L46.1469 40.6816C45.9994 40.7469 45.8391 40.7792 45.6774 40.7763C45.4588 40.7822 45.2452 40.7107 45.0755 40.575L44.9791 40.4803L41.9694 37.0938C41.849 37.4964 41.7527 37.899 41.6203 38.2779L41.5481 38.4437C41.5273 38.4985 41.4989 38.5503 41.4638 38.5976L41.3916 38.6923L41.2591 38.8344L41.0906 38.9884C40.9975 39.0586 40.8965 39.1182 40.7896 39.166L40.4405 39.5922C40.2749 39.6533 40.0997 39.6853 39.9228 39.687H35.9741C35.8464 39.6934 35.7189 39.6723 35.6004 39.6253C35.4819 39.5782 35.3752 39.5064 35.2879 39.4146L33.9877 37.9464L33.4218 39.7935C33.4084 39.8564 33.3839 39.9165 33.3496 39.9712L33.2773 40.1251L33.2051 40.2198L33.0848 40.3619C33.0346 40.4192 32.978 40.4708 32.9162 40.5158C32.8161 40.582 32.7115 40.6413 32.6032 40.6934L32.4467 40.7763C32.2855 40.8398 32.1145 40.8759 31.941 40.8829H24.7899C24.6595 40.8887 24.5293 40.8663 24.4087 40.8172C24.288 40.7681 24.1798 40.6935 24.0917 40.5987L23.0443 39.4146H19.2521L19.1678 39.6988C19.1532 39.7597 19.133 39.8191 19.1076 39.8764C19.0749 39.9252 19.0467 39.9767 19.0233 40.0303L18.9511 40.1251L18.8307 40.2672C18.7805 40.3245 18.724 40.3761 18.6622 40.4211C18.5621 40.4872 18.4575 40.5466 18.3491 40.5987L18.1926 40.6816C18.0315 40.7451 17.8605 40.7811 17.687 40.7882H13.2206C13.0921 40.7923 12.9643 40.769 12.8458 40.72C12.7274 40.6709 12.6211 40.5972 12.5344 40.504L11.1499 38.9528H7.02054C6.8929 38.9592 6.76541 38.9382 6.6469 38.8912C6.52838 38.8441 6.42172 38.7722 6.33435 38.6805L0.712175 32.689C0.757198 32.7337 0.810269 32.7699 0.868686 32.7956C0.76456 32.7348 0.677635 32.6493 0.61588 32.5469C0.536646 32.3948 0.4953 32.2264 0.4953 32.0555C0.4953 31.8846 0.536646 31.7162 0.61588 31.5641C3.79559 25.1401 6.40177 18.4564 8.40504 11.5886V11.5057L8.00774 11.0557C8.00774 11.0557 8.06795 11.0557 8.10407 11.1386C7.97086 11.0183 7.87689 10.8618 7.83403 10.689C7.79118 10.5162 7.80135 10.3348 7.86328 10.1677L9.17551 5.83391C9.28504 5.50686 9.49139 5.21943 9.76809 5.00847C10.0448 4.79751 10.3792 4.67263 10.7285 4.64982H15.5441L16.3266 2.0685C16.4376 1.74229 16.6443 1.45574 16.9207 1.24499C17.1971 1.03425 17.5308 0.90877 17.8796 0.884416H22.3822C22.516 0.879292 22.6492 0.905623 22.7706 0.961222C22.8921 1.01682 22.9982 1.10009 23.0804 1.20413L24.6214 2.94474L24.7418 2.62503C24.8506 2.29534 25.0584 2.00578 25.3377 1.79443C25.6171 1.58309 25.955 1.45985 26.3069 1.44094H42.2102C42.3436 1.43859 42.4759 1.46616 42.5969 1.52156C42.7178 1.57695 42.8244 1.65871 42.9085 1.76065L47.724 7.21929L47.6398 2.6724C47.6465 2.4721 47.6948 2.27526 47.7817 2.09402C47.8687 1.91278 47.9924 1.75096 48.1454 1.61855C48.4363 1.32121 48.8336 1.14709 49.253 1.13308H54.0685C54.2228 1.12841 54.3756 1.16437 54.5111 1.23723C54.6465 1.31008 54.7597 1.41719 54.839 1.5475C54.8181 1.49994 54.7897 1.45597 54.7547 1.41725L58.3664 5.45499L58.9804 3.43022C59.087 3.10146 59.2926 2.81227 59.5699 2.60085C59.8472 2.38944 60.1831 2.26575 60.5334 2.24613H78.1102C78.2446 2.24053 78.3786 2.26537 78.5018 2.31874C78.6249 2.37212 78.7339 2.4526 78.8205 2.55398L84.3102 8.74675L84.3824 8.82965C84.4413 8.91875 84.4784 9.02008 84.4908 9.12567C84.4908 9.12567 84.4908 9.12567 84.4908 9.18488C84.4968 9.27161 84.4968 9.35863 84.4908 9.44536C84.495 9.51239 84.495 9.57964 84.4908 9.64667L78.9649 27.7514L78.8927 27.929L78.8084 28.0829C78.8084 28.0829 78.8084 28.1421 78.7362 28.1776L78.6158 28.3197L78.4352 28.4737C78.3389 28.5447 78.2306 28.5921 78.1342 28.6513C78.0379 28.7105 78.0259 28.7223 77.9777 28.7342C77.8145 28.8045 77.6383 28.8408 77.4601 28.8407H75.0523L76.0034 29.9064V29.9893C76.0645 30.0989 76.1014 30.2199 76.1117 30.3445L76.6414 39.2725V39.5922C76.6414 39.5922 76.6414 39.5922 76.6414 39.6751C76.6414 39.758 76.5572 39.7935 76.5572 39.829Z" fill="black"/>
<path d="M1.79565 31.7891C5.01047 25.2914 7.64878 18.5328 9.68115 11.5886H13.4252C11.4467 18.516 8.8939 25.2721 5.79257 31.7891H1.79565ZM25.9938 2.60143L24.6816 6.88784H40.5609L41.8731 2.60143H25.9938ZM13.8105 32.2036H18.2889C21.0978 27.5505 23.3251 22.5808 24.9223 17.4025H20.9375C19.2829 22.6275 16.8746 27.5921 13.7864 32.1444L13.8105 32.2036ZM21.6237 11.1742L20.2994 15.5316H27.8959L23.6944 29.3262H20.9495L19.6252 33.6481H26.7763L32.2902 15.5316H39.67L41.0063 11.1742H21.6237ZM18.2528 14.6199L19.6012 10.2033H22.3822L23.7064 5.86952H20.9495L22.1534 2.11597H17.5666L16.3627 5.86952H10.4035L9.0792 10.2033H15.0986L7.99567 33.6718H12.4621L16.6516 19.9127L18.2287 21.4402L19.8299 16.1829L18.2528 14.6199ZM32.9402 17.5446C33.0555 22.5591 32.3565 27.5596 30.8696 32.3575H34.8304C36.3258 27.5532 37.1362 22.568 37.2381 17.5446H32.9402ZM53.8036 2.28174H48.9279L49.0603 9.84805H53.9481L53.8036 2.28174ZM43.6067 12.2162L42.1981 16.8578H45.557L40.4405 33.6718L49.0724 30.6406L50.6495 25.4424L47.2063 26.6265L51.6005 12.2043L43.6067 12.2162ZM54.5501 33.6481L60.5093 24.732H55.6938L49.6743 33.6481H54.5501ZM60.2565 3.40662L54.7066 21.5941H72.2833L77.8212 3.40662H60.2565ZM69.0689 17.0591H60.7019L63.4709 7.92982H71.8981L69.1171 17.0591M64.5182 24.6964L65.048 33.6126H69.8635L69.3218 24.6964H64.5182Z" fill="white"/>
</g>
<defs>
<clipPath id="clip0_304_2">
<rect width="84" height="40" fill="white" transform="translate(0.4953 0.883789)"/>
</clipPath>
</defs>
</svg>
