<svg width="480" height="481" viewBox="0 0 480 481" fill="none" xmlns="http://www.w3.org/2000/svg">
<path d="M440.48 324.96L364.32 300.8C354.599 297.678 344.213 297.249 334.268 299.559C324.322 301.869 315.189 306.832 307.84 313.92L277.6 343.04C254.788 330.183 233.11 315.41 212.8 298.88C200.977 289.436 190.244 278.703 180.8 266.88C164.219 246.857 149.391 225.444 136.48 202.88L165.6 172.8C172.687 165.417 177.647 156.256 179.956 146.286C182.266 136.316 181.839 125.907 178.72 116.16L155.04 39.68C150.707 26.1226 141.456 14.6785 129.107 7.60108C116.759 0.523636 102.208 -1.67432 88.32 1.43999L56.32 8.63999C47.0734 10.8927 38.5387 15.4263 31.4953 21.8268C24.452 28.2273 19.1247 36.2905 16 45.28C-47.04 217.28 99.68 355.2 112.8 368C122.72 378.88 218.4 480.8 348.32 480.8C377.894 480.647 407.205 475.229 434.88 464.8C443.909 461.582 451.983 456.143 458.358 448.985C464.733 441.827 469.205 433.18 471.36 423.84L478.56 391.84C481.689 377.952 479.518 363.396 472.474 351.024C465.43 338.653 454.02 329.357 440.48 324.96Z" fill="black"/>
</svg>
